<svg width="29" height="28" viewBox="0 0 29 28" fill="none" xmlns="http://www.w3.org/2000/svg">
<path fill-rule="evenodd" clip-rule="evenodd" d="M4.87868 6.87868C4 7.75736 4 9.17157 4 12V15.5556C4 18.384 4 19.7982 4.87868 20.6769C5.75736 21.5556 7.17157 21.5556 10 21.5556H18C20.8284 21.5556 22.2426 21.5556 23.1213 20.6769C24 19.7982 24 18.384 24 15.5555V12C24 9.17157 24 7.75736 23.1213 6.87868C22.2426 6 20.8284 6 18 6H10C7.17157 6 5.75736 6 4.87868 6.87868ZM7.88803 9.61239C7.4285 9.30604 6.80764 9.43022 6.50128 9.88974C6.19493 10.3493 6.3191 10.9701 6.77863 11.2765L12.8906 15.3511C13.5624 15.799 14.4376 15.799 15.1094 15.3511L21.2214 11.2765C21.6809 10.9701 21.8051 10.3493 21.4987 9.88974C21.1924 9.43022 20.5715 9.30604 20.112 9.61239L14 13.687L7.88803 9.61239Z" fill="#404040"/>
</svg>
