<svg width="28" height="28" viewBox="0 0 28 28" fill="none" xmlns="http://www.w3.org/2000/svg">
<path fill-rule="evenodd" clip-rule="evenodd" d="M14.1667 24C19.6895 24 24.1667 19.5228 24.1667 14C24.1667 8.47715 19.6895 4 14.1667 4C8.64384 4 4.16669 8.47715 4.16669 14C4.16669 19.5228 8.64384 24 14.1667 24ZM16.7648 12.4999C16.1908 11.5057 13.1895 9.85502 11.8333 9.14531C11.5169 8.97974 11.1441 9.19497 11.1293 9.55177C11.0658 11.0812 10.9947 14.5057 11.5687 15.4999C12.1427 16.4941 15.144 18.1448 16.5002 18.8545C16.8166 19.0201 17.1894 18.8049 17.2042 18.4481C17.2677 16.9187 17.3388 13.4941 16.7648 12.4999Z" fill="#273a49"/>
</svg>
