<svg width="28" height="28" viewBox="0 0 28 28" fill="none" xmlns="http://www.w3.org/2000/svg">
<path d="M10.4254 3C11.6819 3.27615 12.2955 4.20828 12.7355 5.29682C13.1835 6.40427 13.3697 7.56729 13.3411 8.75896C13.3084 10.1311 12.4496 11.1354 11.0041 11.478C9.80207 11.7628 8.69975 11.5302 7.75728 10.7092C7.20555 10.2279 6.93856 9.58339 6.91565 8.86552C6.86752 7.34786 7.13164 5.88865 7.87416 4.54401C8.16177 4.02323 8.53189 3.56604 9.06758 3.28359C9.30362 3.15927 9.57004 3.09281 9.8227 3H10.4243L10.4254 3Z" fill="#FF0000"/>
<path d="M20.6103 3C20.9821 3.1713 21.0933 3.46578 21.0893 3.8651C21.0744 5.38906 21.0835 6.91359 21.083 8.43755C21.083 10.4393 19.6002 11.7782 17.5915 11.5834C16.7974 11.5061 16.0692 11.2569 15.4751 10.6977C14.9176 10.1729 14.653 9.50833 14.6449 8.75953C14.6266 7.05682 14.6375 5.35354 14.6375 3.65026C14.6375 3.32083 14.8432 3.1375 15.1096 3H15.4533C15.8252 3.1713 15.938 3.46578 15.9323 3.86453C15.9151 5.05906 15.9277 6.25417 15.9254 7.4487C15.9249 7.75062 16.044 7.97865 16.3213 8.10182C16.755 8.29432 17.2128 7.97062 17.214 7.4699C17.2174 6.26792 17.226 5.06594 17.2088 3.86453C17.2036 3.46521 17.3154 3.17073 17.6883 3H18.0321C18.4039 3.1713 18.5168 3.46578 18.5111 3.86453C18.4939 5.05906 18.5065 6.25417 18.5042 7.4487C18.5036 7.75062 18.6228 7.97865 18.9001 8.10182C19.3338 8.29432 19.7916 7.97062 19.7927 7.4699C19.7962 6.26792 19.8048 5.06594 19.7876 3.86453C19.7818 3.46521 19.8941 3.17073 20.2665 3H20.6103Z" fill="#FF0000"/>
<path d="M9.86644 25C9.62008 24.8928 9.34622 24.8235 9.13194 24.6711C8.48281 24.2088 8.32468 23.5573 8.45531 22.7925C8.9085 20.1388 9.23507 17.4701 9.35939 14.7785C9.3783 14.3712 9.41038 13.9644 9.43731 13.5571C9.46252 13.1738 9.74784 12.8902 10.1134 12.8845C10.4875 12.8788 10.7831 13.1641 10.8112 13.5571C10.9103 14.9636 10.9716 16.3735 11.1189 17.7749C11.2839 19.3458 11.5297 20.9088 11.7342 22.4763C11.7795 22.8217 11.8534 23.1775 11.815 23.5172C11.7296 24.2649 11.2123 24.788 10.4795 24.961C10.4462 24.969 10.4153 24.9868 10.3832 25H9.86758H9.86644Z" fill="#FF0000"/>
<path d="M17.6023 25C17.3559 24.8928 17.0821 24.8235 16.8678 24.6711C16.2186 24.2088 16.0605 23.5573 16.1911 22.7925C16.6443 20.1388 16.9709 17.4701 17.0952 14.7785C17.1141 14.3712 17.1462 13.9644 17.1732 13.5571C17.1984 13.1738 17.4837 12.8902 17.8492 12.8845C18.2233 12.8788 18.519 13.1641 18.547 13.5571C18.6462 14.9636 18.7075 16.3735 18.8547 17.7749C19.0197 19.3458 19.2655 20.9088 19.47 22.4763C19.5153 22.8217 19.5892 23.1775 19.5508 23.5172C19.4655 24.2649 18.9481 24.7874 18.2153 24.961C18.1821 24.969 18.1511 24.9868 18.1191 25H17.6034H17.6023Z" fill="#FF0000"/>
</svg>
