<svg width="28" height="28" viewBox="0 0 28 28" fill="none" xmlns="http://www.w3.org/2000/svg">
<path d="M10.4256 3C11.682 3.27615 12.2957 4.20828 12.7357 5.29682C13.1837 6.40427 13.3699 7.56729 13.3413 8.75896C13.3086 10.1311 12.4498 11.1354 11.0043 11.478C9.80226 11.7628 8.69994 11.5302 7.75747 10.7092C7.20573 10.2279 6.93875 9.58339 6.91583 8.86552C6.8677 7.34786 7.13182 5.88865 7.87434 4.54401C8.16196 4.02323 8.53207 3.56604 9.06776 3.28359C9.30381 3.15927 9.57022 3.09281 9.82288 3H10.4245L10.4256 3Z" fill="#858585"/>
<path d="M20.6105 3C20.9824 3.1713 21.0935 3.46578 21.0895 3.8651C21.0746 5.38906 21.0838 6.91359 21.0832 8.43755C21.0832 10.4393 19.6005 11.7782 17.5918 11.5834C16.7977 11.5061 16.0695 11.2569 15.4754 10.6977C14.9179 10.1729 14.6532 9.50833 14.6452 8.75953C14.6268 7.05682 14.6377 5.35354 14.6377 3.65026C14.6377 3.32083 14.8434 3.1375 15.1098 3H15.4536C15.8254 3.1713 15.9383 3.46578 15.9326 3.86453C15.9154 5.05906 15.928 6.25417 15.9257 7.4487C15.9251 7.75062 16.0443 7.97865 16.3216 8.10182C16.7553 8.29432 17.2131 7.97062 17.2142 7.4699C17.2176 6.26792 17.2262 5.06594 17.209 3.86453C17.2039 3.46521 17.3156 3.17073 17.6886 3H18.0323C18.4042 3.1713 18.5171 3.46578 18.5113 3.86453C18.4941 5.05906 18.5067 6.25417 18.5044 7.4487C18.5039 7.75062 18.623 7.97865 18.9003 8.10182C19.334 8.29432 19.7918 7.97062 19.793 7.4699C19.7964 6.26792 19.805 5.06594 19.7878 3.86453C19.7821 3.46521 19.8944 3.17073 20.2668 3H20.6105Z" fill="#858585"/>
<path d="M9.8665 25C9.62014 24.8928 9.34628 24.8235 9.132 24.6711C8.48287 24.2088 8.32474 23.5573 8.45537 22.7925C8.90856 20.1388 9.23513 17.4701 9.35945 14.7785C9.37836 14.3712 9.41044 13.9644 9.43737 13.5571C9.46258 13.1738 9.7479 12.8902 10.1134 12.8845C10.4876 12.8788 10.7832 13.1641 10.8113 13.5571C10.9104 14.9636 10.9717 16.3735 11.1189 17.7749C11.2839 19.3458 11.5297 20.9088 11.7343 22.4763C11.7795 22.8217 11.8534 23.1775 11.815 23.5172C11.7297 24.2649 11.2123 24.788 10.4795 24.961C10.4463 24.969 10.4154 24.9868 10.3833 25H9.86764H9.8665Z" fill="#858585"/>
<path d="M17.6025 25C17.3562 24.8928 17.0823 24.8235 16.868 24.6711C16.2189 24.2088 16.0608 23.5573 16.1914 22.7925C16.6446 20.1388 16.9712 17.4701 17.0955 14.7785C17.1144 14.3712 17.1465 13.9644 17.1734 13.5571C17.1986 13.1738 17.4839 12.8902 17.8495 12.8845C18.2236 12.8788 18.5192 13.1641 18.5473 13.5571C18.6464 14.9636 18.7077 16.3735 18.855 17.7749C19.02 19.3458 19.2657 20.9088 19.4703 22.4763C19.5155 22.8217 19.5894 23.1775 19.5511 23.5172C19.4657 24.2649 18.9483 24.7874 18.2156 24.961C18.1823 24.969 18.1514 24.9868 18.1193 25H17.6037H17.6025Z" fill="#858585"/>
</svg>
