<svg width="28" height="28" viewBox="0 0 28 28" fill="none" xmlns="http://www.w3.org/2000/svg">
<path fill-rule="evenodd" clip-rule="evenodd" d="M5.35288 10.8042C5 11.4735 5 12.2349 5 13.7577V18.5137C5 20.6285 5 21.686 5.75315 22.343C6.46838 22.9669 7.59757 22.9983 9.78572 22.9999V17.3922C9.78572 16.0965 10.9417 15.2706 12.0714 15.2706H15.9286C17.0583 15.2706 18.2143 16.0965 18.2143 17.3922V22.9999C20.4024 22.9983 21.5316 22.9669 22.2468 22.343C23 21.686 23 20.6285 23 18.5137V13.7577C23 12.2349 23 11.4735 22.6471 10.8042C22.2942 10.1349 21.6315 9.63937 20.3061 8.64832L19.0204 7.68697C16.6247 5.89566 15.4268 5 14 5C12.5732 5 11.3753 5.89566 8.97961 7.68697L7.6939 8.64832C6.36847 9.63937 5.70576 10.1349 5.35288 10.8042ZM16.2143 23V17.394C16.2121 17.3878 16.2042 17.3735 16.1803 17.3527C16.1353 17.3134 16.0494 17.2706 15.9286 17.2706H12.0714C11.9507 17.2706 11.8647 17.3134 11.8197 17.3527C11.7958 17.3735 11.788 17.3878 11.7857 17.394V23H16.2143ZM11.785 17.3973C11.7848 17.3973 11.7849 17.3962 11.7857 17.3941C11.7855 17.3963 11.7851 17.3974 11.785 17.3973ZM16.2149 17.3971C16.2149 17.3973 16.215 17.3973 16.215 17.3973C16.2152 17.3973 16.2151 17.3962 16.2144 17.3941C16.2145 17.3958 16.2147 17.3967 16.2149 17.3971Z" fill="#273a49"/>
</svg>
