<svg width="20" height="16" viewBox="0 0 20 16" fill="none" xmlns="http://www.w3.org/2000/svg">
<path fill-rule="evenodd" clip-rule="evenodd" d="M0.87868 0.87868C0 1.75736 0 3.17157 0 6.00001V9.55556C0 12.384 0 13.7982 0.87868 14.6769C1.75736 15.5556 3.17157 15.5556 6 15.5556H14C16.8284 15.5556 18.2426 15.5556 19.1213 14.6769C20 13.7982 20 12.384 20 9.55555V6C20 3.17157 20 1.75736 19.1213 0.87868C18.2426 0 16.8284 0 14 0H6C3.17157 0 1.75736 0 0.87868 0.87868ZM3.88803 3.61239C3.4285 3.30604 2.80764 3.43022 2.50128 3.88974C2.19493 4.34927 2.3191 4.97014 2.77863 5.27649L8.8906 9.35114C9.5624 9.79901 10.4376 9.79901 11.1094 9.35114L17.2214 5.27649C17.6809 4.97014 17.8051 4.34927 17.4987 3.88974C17.1924 3.43022 16.5715 3.30604 16.112 3.61239L10 7.68704L3.88803 3.61239Z" fill="#404040"/>
</svg>
